<svg viewBox="0 0 400 300" xmlns="http://www.w3.org/2000/svg">
  <defs>
    <radialGradient id="glow13c" cx="50%" cy="40%" r="65%">
      <stop offset="0%" stop-color="#F3E8D0"/>
      <stop offset="100%" stop-color="#EADFC4"/>
    </radialGradient>
  </defs>
  <rect width="400" height="300" fill="url(#glow13c)"/>
  <g transform="translate(150,220)">
    <ellipse cx="0" cy="15" rx="24" ry="40" fill="#8A3444"/>
    <circle cx="0" cy="-14" r="17" fill="#F0C078"/>
  </g>
  <g transform="translate(200,225)">
    <ellipse cx="0" cy="10" rx="15" ry="30" fill="#B4485A"/>
    <circle cx="0" cy="-20" r="12" fill="#F0C078"/>
  </g>
  <g transform="translate(280,210)">
    <ellipse cx="0" cy="40" rx="55" ry="45" fill="#6A4C8C"/>
    <path d="M-38 5 L-55 -27 L-16 -11 Z" fill="#6A4C8C"/>
    <path d="M38 5 L55 -27 L16 -11 Z" fill="#6A4C8C"/>
    <circle cx="-15" cy="25" r="7" fill="#F0C078"/>
    <circle cx="15" cy="25" r="7" fill="#F0C078"/>
  </g>
  <g fill="#F0C078">
    <path d="M200 90 l5 13 13 5 -13 5 -5 13 -5 -13 -13 -5 13 -5 Z"/>
    <path d="M320 100 l4 11 11 4 -11 4 -4 11 -4 -11 -11 -4 11 -4 Z"/>
    <path d="M90 110 l4 11 11 4 -11 4 -4 11 -4 -11 -11 -4 11 -4 Z"/>
  </g>
</svg>
