<svg viewBox="0 0 400 300" xmlns="http://www.w3.org/2000/svg">
  <rect width="400" height="300" fill="#FBF7F0"/>
  <circle cx="70" cy="70" r="50" fill="#F3E7D3"/>
  <path d="M20 190 C 120 190, 130 150, 220 155 C 300 158, 320 190, 380 190" fill="none" stroke="#7A4A18" stroke-width="8" stroke-linecap="round"/>
  <path d="M100 175 L 100 155" stroke="#7A4A18" stroke-width="5" stroke-linecap="round"/>
  <path d="M260 172 L 260 150" stroke="#7A4A18" stroke-width="5" stroke-linecap="round"/>
  <g>
    <g transform="translate(100,140)">
      <ellipse cx="0" cy="0" rx="16" ry="12" fill="#C1782B"/>
      <circle cx="12" cy="-6" r="8" fill="#C1782B"/>
      <path d="M0 -2 Q10 -14 20 -6 Q10 -8 4 2 Z" fill="#E3A855"/>
      <circle cx="15" cy="-8" r="1.6" fill="#1B1A2E"/>
    </g>
    <g transform="translate(260,135) scale(1.15)">
      <ellipse cx="0" cy="0" rx="16" ry="12" fill="#7A4A18"/>
      <circle cx="-12" cy="-6" r="8" fill="#7A4A18"/>
      <path d="M0 -2 Q-10 -14 -20 -6 Q-10 -8 -4 2 Z" fill="#E3A855"/>
      <circle cx="-15" cy="-8" r="1.6" fill="#FBF7F0"/>
    </g>
    <g transform="translate(320,95) scale(0.85)">
      <path d="M0 0 Q10 -10 20 0 Q10 -4 0 0 Z" fill="#C1782B"/>
      <path d="M0 0 Q-10 -10 -20 0 Q-10 -4 0 0 Z" fill="#C1782B"/>
    </g>
  </g>
  <g fill="#C1782B" opacity="0.8">
    <text x="150" y="80" font-size="26" font-family="sans-serif">♪</text>
    <text x="185" y="60" font-size="20" font-family="sans-serif">♫</text>
  </g>
</svg>
