<svg viewBox="0 0 400 300" xmlns="http://www.w3.org/2000/svg">
  <defs>
    <radialGradient id="glow17" cx="50%" cy="35%" r="70%">
      <stop offset="0%" stop-color="#F3E7D3"/>
      <stop offset="100%" stop-color="#E3A855" stop-opacity="0.4"/>
    </radialGradient>
  </defs>
  <rect width="400" height="300" fill="url(#glow17)"/>
  <circle cx="200" cy="90" r="46" fill="#E3A855" opacity="0.7"/>
  <path d="M40 300 C 130 235, 270 235, 360 300 Z" fill="#F3E7D3"/>
  <g transform="translate(175,235)">
    <ellipse cx="0" cy="10" rx="16" ry="34" fill="#7A4A18"/>
    <circle cx="0" cy="-24" r="14" fill="#E3A855"/>
  </g>
  <g transform="translate(225,240)">
    <ellipse cx="0" cy="14" rx="26" ry="24" fill="#C1782B"/>
    <path d="M-22 0 L-34 -22 L-8 -8 Z" fill="#C1782B"/>
    <path d="M22 0 L34 -22 L8 -8 Z" fill="#C1782B"/>
    <circle cx="-8" cy="10" r="3" fill="#FBF7F0"/>
    <circle cx="8" cy="10" r="3" fill="#FBF7F0"/>
  </g>
  <path d="M188 210 Q205 195 222 212" stroke="#7A4A18" stroke-width="5" fill="none" stroke-linecap="round"/>
  <g fill="#E3A855">
    <path d="M100 90 l4 11 11 4 -11 4 -4 11 -4 -11 -11 -4 11 -4 Z"/>
    <path d="M310 110 l4 11 11 4 -11 4 -4 11 -4 -11 -11 -4 11 -4 Z"/>
    <circle cx="90" cy="160" r="4"/>
    <circle cx="320" cy="170" r="5"/>
  </g>
</svg>
